<?xml version="1.0" encoding="utf-8"?>
<svg viewBox="0 0 512 512" xmlns="http://www.w3.org/2000/svg">
  <rect x="0.792" y="0.805" width="511.363" height="512.8" style="stroke: rgb(0, 0, 0); pointer-events: none;"/>
  <g>
    <path id="path-1" stroke-width="1" d="M 123.75 89.737 L 53.25 89.737 L 53.25 195.737 L 87.52 195.737 L 87.52 160.737 L 69.89 160.737 L 69.89 124.737 L 123.75 124.737 L 123.8 231.758 L 17 231.737 C 17 231.737 17.184 54.182 17 53.858 C 17.184 54.182 123.349 53.887 123.8 53.858 L 123.75 89.737 Z M 176.25 195.737 C 176.25 195.737 210.52 195.737 210.52 195.737 C 210.52 195.737 210.52 89.737 210.52 89.737 C 210.52 89.737 176.25 89.737 176.25 89.737 C 176.25 89.737 176.25 195.737 176.25 195.737 Z M 246.8 231.558 L 140 231.758 C 140 231.858 139.825 54.213 140 53.858 C 139.825 54.213 246.975 52.358 246.8 53.858 C 246.975 52.358 246.8 231.758 246.8 231.758 L 246.8 231.558 Z M 334.5 231.737 C 334.5 231.737 298.27 231.737 298.27 231.737 C 298.27 231.737 298.27 89.737 298.27 89.737 C 298.27 89.737 263.02 89.737 263.02 89.737 C 263.02 89.737 263.02 53.737 263 53.858 C 263.02 53.737 369.75 53.737 369.8 53.858 C 369.75 53.737 369.75 89.737 369.75 89.737 C 369.75 89.737 334.5 89.737 334.5 89.737 C 334.5 89.737 334.5 231.737 334.5 231.737 Z M 422.25 195.737 C 422.25 195.737 456.52 195.737 456.52 195.737 C 456.52 195.737 456.52 89.737 456.52 89.737 C 456.52 89.737 422.25 89.737 422.25 89.737 C 422.25 89.737 422.25 195.737 422.25 195.737 Z M 492.8 231.758 L 386 231.058 C 386 231.058 386 53.9 386 53.858 C 386 53.9 492.8 53.858 492.8 53.858 L 492.8 231.758 Z" style="opacity: 0.9; fill: rgb(255, 255, 255);">
      <title>GOTO</title>
    </path>
  </g>
  <g>
    <path id="Path" stroke-width="1" d="M 51 460.737 C 51 460.737 17.08 460.737 17.08 460.737 C 17.08 460.737 17.08 293.737 17.08 293.737 C 17.08 293.737 100.5 293.737 100.5 293.737 C 100.5 293.737 100.5 326.737 100.5 326.737 C 100.5 326.737 51 326.737 51 326.737 C 51 326.737 51 360.737 51 360.737 C 51 360.737 100.5 360.737 100.5 360.737 C 100.5 360.737 100.5 393.737 100.5 393.737 C 100.5 393.737 51 393.737 51 393.737 C 51 393.737 51 460.737 51 460.737 Z M 150 326.737 C 150 326.737 150 360.737 150 360.737 C 150 360.737 182.08 360.737 182.08 360.737 C 182.08 360.737 182.08 326.737 182.08 326.737 C 182.08 326.737 150 326.737 150 326.737 Z M 150 460.737 C 150 460.737 116.08 460.737 116.08 460.737 C 116.08 460.737 116.08 293.737 116.08 293.737 C 116.08 293.737 199.5 293.737 199.5 293.737 C 199.5 293.737 199.5 310.737 199.5 310.737 C 199.5 310.737 216 310.737 216 310.737 C 216 310.737 216 377.627 216 377.627 C 216 377.627 199.5 377.627 199.5 377.627 C 199.5 377.627 199.5 393.207 199.5 393.207 C 199.5 393.207 216 393.207 216 393.207 C 216 393.207 216 460.737 216 460.737 C 216 460.737 182.08 460.737 182.08 460.737 C 182.08 460.737 182.08 393.737 182.08 393.737 C 182.08 393.737 150 393.737 150 393.737 C 150 393.737 150 460.737 150 460.737 Z M 199.5 293.737 L 199.5 310.737 L 199.5 293.737 Z M 265 460.737 C 265 460.737 231.08 460.737 231.08 460.737 C 231.08 460.737 231.08 293.737 231.08 293.737 C 231.08 293.737 265 293.737 265 293.737 C 265 293.737 265 460.737 265 460.737 Z M 347 460.737 C 347 460.737 313.08 460.737 313.08 460.737 C 313.08 460.737 313.08 326.737 313.08 326.737 C 313.08 326.737 280.08 326.737 280.08 326.737 C 280.08 326.737 280.08 293.737 280.08 293.737 C 280.08 293.737 380 293.737 380 293.737 C 380 293.737 380 326.737 380 326.737 C 380 326.737 347 326.737 347 326.737 C 347 326.737 347 460.737 347 460.737 Z M 495 460.737 C 495 460.737 395.08 460.737 395.08 460.737 C 395.08 460.737 395.08 393.207 395.08 393.207 C 395.08 393.207 411.58 393.207 411.58 393.207 C 411.58 393.207 411.58 376.707 411.58 376.707 C 411.58 376.707 428.08 376.707 428.08 376.707 C 428.08 376.707 428.08 360.737 428.08 360.737 C 428.08 360.737 444.58 360.737 444.58 360.737 C 444.58 360.737 444.58 343.737 444.58 343.737 C 444.58 343.737 461.08 343.737 461.08 343.737 C 461.08 343.737 461.08 326.737 461.08 326.737 C 461.08 326.737 395.08 326.737 395.08 326.737 C 395.08 326.737 395.08 293.737 395.08 293.737 C 395.08 293.737 495 293.737 495 293.737 C 495 293.737 495 344.737 495 344.737 C 495 344.737 478.5 344.737 478.5 344.737 C 478.5 344.737 478.5 360.737 478.5 360.737 C 478.5 360.737 462 360.737 462 360.737 C 462 360.737 462 376.737 462 376.737 C 462 376.737 445.5 376.737 445.5 376.737 C 445.5 376.737 445.5 393.737 445.5 393.737 C 445.5 393.737 429 393.737 429 393.737 C 429 393.737 429 427.737 429 427.737 C 429 427.737 495 427.737 495 427.737 C 495 427.737 495 460.737 495 460.737 Z M 462 360.737 L 478.5 360.737 L 462 360.737 Z M 478.5 344.737 L 495 344.737 L 478.5 344.737 Z" style="opacity: 0.9; fill: rgb(255, 255, 255);">
      <title>FRITZ</title>
    </path>
  </g>
</svg>